<svg width="64" height="64" viewBox="0 0 64 64" fill="none" xmlns="http://www.w3.org/2000/svg">
<path fill-rule="evenodd" clip-rule="evenodd" d="M57.6004 51.1892H50.1341V49.056H56.5338C57.1233 49.056 57.6004 48.5784 57.6004 47.9894V39.4565C57.6004 39.1737 57.4884 38.9024 57.2879 38.7024L54.4006 35.8151V34.1235C54.4006 32.3564 52.9684 30.9237 51.2008 30.9237H44.51L43.4309 26.9015C42.1747 22.2096 38.8468 18.3473 34.3924 16.4115L11.05 6.19129C10.6573 6.02203 10.2417 5.91422 9.81672 5.87152L9.75058 3.56957C9.64694 1.85457 8.40535 0.42288 6.72211 0.0775878C5.03888 -0.267184 3.33377 0.560372 2.56402 2.09674L0.914643 5.38509C0.315199 6.58502 0.00323768 7.90838 0.00375849 9.25049C0.00323768 10.2426 0.0829205 11.2337 0.241765 12.2133L4.03269 35.9046L3.62959 36.2046C1.21254 38.017 -0.143629 40.9137 0.0120913 43.9313C0.168332 46.9483 1.81563 49.6898 4.40715 51.2433L5.85758 52.1073C6.02268 52.2053 6.21173 52.2563 6.40338 52.2558H11.7364C12.1301 52.2558 12.4916 52.0391 12.6775 51.6923C12.8629 51.3454 12.8426 50.9246 12.6239 50.597L10.6698 47.6696V36.2567C10.6682 36.1052 10.6547 35.9536 10.6287 35.8047L10.0589 14.9163L27.0256 24.1069C28.499 24.9074 29.6588 26.1818 30.3171 27.7239H24.5357C24.1794 27.7239 23.8466 27.902 23.6487 28.1983L19.3823 34.598C19.2656 34.7735 19.2032 34.9797 19.2026 35.1901V47.9894C19.2026 48.5784 19.6802 49.056 20.2692 49.056H26.6689V51.1892H19.2026C15.6685 51.1892 12.803 54.0546 12.803 57.5888C12.803 61.123 15.6685 63.9884 19.2026 63.9884H57.6004C61.1351 63.9884 64 61.123 64 57.5888C64 54.0546 61.1351 51.1892 57.6004 51.1892ZM27.7355 53.322H52.8434C50.6534 55.7448 50.6534 59.4321 52.8434 61.8549H23.9602C26.1502 59.4321 26.1502 55.7448 23.9602 53.322H27.7355ZM52.2674 35.1903V34.1237C52.2674 33.5347 51.7904 33.0571 51.2008 33.0571H43.7346C43.1455 33.0571 42.668 33.5347 42.668 34.1237V35.1903H52.2674ZM7.85017 35.267C7.89444 35.2878 7.93767 35.3113 7.97881 35.3378C8.04599 35.3727 8.10901 35.4154 8.16682 35.4644C8.20796 35.5024 8.24598 35.5435 8.28088 35.5873C8.36004 35.6831 8.42305 35.7914 8.46732 35.9071C8.48451 35.9649 8.49597 36.0242 8.50274 36.0841L8.51107 36.3799C8.45378 36.9127 8.00641 37.3184 7.46999 37.3236C6.88096 37.3236 6.40338 36.8461 6.40338 36.257C6.40338 35.668 6.88096 35.1904 7.46999 35.1904C7.60071 35.192 7.72935 35.218 7.85017 35.267ZM5.50343 49.4109L6.69711 50.1223H9.74328L8.71626 48.5813C8.5996 48.4058 8.5371 48.1995 8.53658 47.9891V39.2599C7.30228 39.7188 5.91226 39.35 5.06699 38.3397C4.91492 38.3027 4.77222 38.2329 4.65035 38.135C2.91868 39.5683 1.99061 41.7525 2.16039 43.9935C2.32966 46.2345 3.57594 48.2542 5.50343 49.4109ZM8.43028 33.2138C8.40287 33.2048 8.37545 33.1981 8.34804 33.1913C8.33587 33.1883 8.32371 33.1853 8.31154 33.1821C8.28517 33.175 8.25897 33.1672 8.23276 33.1594L8.23273 33.1594L8.2327 33.1594L8.23267 33.1594L8.23263 33.1593L8.2326 33.1593L8.23257 33.1593L8.23254 33.1593C8.17961 33.1435 8.12661 33.1277 8.07197 33.118C7.87354 33.0779 7.67199 33.0576 7.46992 33.0571C7.26473 33.0581 7.06005 33.079 6.85902 33.1191C6.81645 33.127 6.77597 33.1393 6.73547 33.1516L6.73544 33.1516L6.7354 33.1516L6.73536 33.1516L6.7352 33.1517C6.71187 33.1588 6.68852 33.1659 6.66476 33.1722C6.53664 33.2039 6.41009 33.2435 6.28614 33.2894C6.23975 33.3087 6.1955 33.3304 6.15037 33.3526L6.15034 33.3526L6.1503 33.3526L6.15025 33.3526L6.14995 33.3528L6.14968 33.3529L6.14941 33.3531L6.14913 33.3532C6.12424 33.3654 6.09907 33.3777 6.07313 33.3899C6.04938 33.4017 6.02545 33.4133 6.00152 33.4249L6.00135 33.425C5.93507 33.4571 5.86881 33.4891 5.80648 33.5274L2.35043 11.8734C2.20877 11.0063 2.13742 10.1293 2.1369 9.25066C2.1369 8.23874 2.3723 7.24037 2.82488 6.33521L4.46541 3.05467C4.71227 2.59376 5.15652 2.27139 5.67107 2.18025C6.18562 2.08858 6.71372 2.23805 7.10432 2.58543C7.4043 2.86666 7.58867 3.24997 7.62043 3.66037L7.69439 6.23834C6.29707 6.88726 5.38567 8.26791 5.33828 9.8074C5.29088 11.3469 6.11584 12.7812 7.46992 13.515L7.89698 13.7421L8.43028 33.2138ZM8.48762 11.6385L28.0458 22.228L28.0406 22.2322C30.2093 23.4076 31.8404 25.3752 32.594 27.724H37.3349C37.9244 27.724 38.4015 28.2016 38.4015 28.7906V35.1903H40.5347V34.1237C40.5378 32.8841 41.2565 31.7582 42.3789 31.2332L41.3659 27.4574C40.2769 23.3915 37.3922 20.0443 33.5315 18.3668L10.1943 8.14758C9.24174 7.74135 8.13816 8.15227 7.6835 9.08294C7.22832 10.0131 7.58194 11.1365 8.48762 11.6385ZM21.3358 35.5097L25.1064 29.8569H36.2683V33.0567H34.1351C33.8523 33.0567 33.5815 33.1692 33.3815 33.3692L26.9818 39.7689C26.7813 39.9688 26.6694 40.2402 26.6688 40.523V42.6562H21.3358V35.5097ZM36.2682 42.6567V35.1904H34.5767L28.802 40.9651V42.6567H36.2682ZM21.3358 44.7892H37.3349C37.9244 44.7892 38.4015 44.3116 38.4015 43.7226V37.323H52.8928L55.4671 39.8978V46.9224H21.3358V44.7892ZM48.0009 49.0562H28.802V51.1894H48.0009V49.0562ZM14.9362 57.5884C14.9362 55.2323 16.8465 53.322 19.2026 53.322C21.5593 53.322 23.4691 55.2323 23.4691 57.5884C23.4691 59.9445 21.5593 61.8549 19.2026 61.8549C16.8465 61.8549 14.9362 59.9445 14.9362 57.5884ZM53.3339 57.5884C53.3339 59.9445 55.2442 61.8549 57.6003 61.8549C59.957 61.8549 61.8668 59.9445 61.8668 57.5884C61.8668 55.2323 59.957 53.322 57.6003 53.322C55.2442 53.322 53.3339 55.2323 53.3339 57.5884Z" fill="#F7B500"/>
</svg>
