<svg width="64" height="64" viewBox="0 0 64 64" fill="none" xmlns="http://www.w3.org/2000/svg">
<path fill-rule="evenodd" clip-rule="evenodd" d="M60.8 53.12C54.4338 49.744 49.5506 47.851 45.2035 47.1252L45.6533 46.5067C45.8667 46.2933 45.9733 45.9733 45.8667 45.6533L44.8671 41.6549C47.5109 37.9174 49.0667 33.2448 49.0667 28.8V24.5333H50.1333H52.2666C52.9066 24.5333 53.3332 24.1067 53.3332 23.4667C53.3332 22.8267 52.9066 22.4001 52.2666 22.4001H51.2V21.3335C51.2 12.9069 45.6533 5.76019 37.3333 3.41346V3.19996C37.3333 1.49323 35.9467 0 34.1334 0H29.8666C28.1599 0 26.6667 1.38661 26.6667 3.19996V3.41334C18.3467 5.76006 12.8 12.9067 12.8 21.3334V22.4H11.7334C11.0934 22.4 10.6668 22.8266 10.6668 23.4666C10.6668 24.1066 11.0934 24.5332 11.7334 24.5332H13.8667H14.9333V28.7999C14.9333 33.2447 16.4891 37.9173 19.1329 41.6549L18.1333 45.6533C18.1333 45.8667 18.1333 46.2933 18.3467 46.5067L18.7965 47.1252C14.4495 47.8511 9.56621 49.744 3.19996 53.12C1.17336 54.0801 0 56.1067 0 58.3467V62.9334C0 63.5734 0.426619 64 1.06661 64H26.6667H27.0933H36.9067H37.3333H62.9334C63.5734 64 64 63.5734 64 62.9334V58.3467C64.0001 56.2133 62.72 54.1867 60.8 53.12ZM31.3604 52.1325L32.0061 50.6797L33.6004 54.1872L34.6431 56.5332H29.4402L31.3604 52.1325ZM35.3626 58.6665H28.6294L27.9894 61.8665H35.9721L35.3626 58.6665ZM43.2 43.7334L43.6267 45.6534L42.537 47.1495C42.4675 47.2063 42.4032 47.2752 42.3467 47.36L37.9099 53.5032L36.5021 55.4363L33.6265 48.9661C37.0638 48.5468 40.1322 46.8213 42.6105 44.3415L42.638 44.3144C42.6563 44.2963 42.6746 44.2782 42.6929 44.2599L42.7127 44.2397C42.877 44.0749 43.0395 43.9064 43.2 43.7334ZM42.1624 8.0422C42.0462 7.96061 41.9288 7.88055 41.8103 7.80176L40.8534 12.4802L45.7601 11.5202C44.7771 10.2424 43.522 9.05544 42.1624 8.0422ZM23.1467 12.4802L18.24 11.5202C19.223 10.2423 20.4782 9.05531 21.8379 8.04207C21.9539 7.96061 22.0713 7.88055 22.1897 7.80176L23.1467 12.4802ZM16.9413 13.477C15.6479 15.8171 14.9333 18.4949 14.9333 21.3333H14.9335V22.3999H16.0001H48H49.0666V21.3333C49.0666 18.4598 48.3347 15.7507 47.011 13.39L39.6799 14.9334H39.4666C39.1466 14.9334 38.9333 14.8268 38.7199 14.6134C38.5066 14.4 38.3999 13.9734 38.3999 13.6534L39.8348 6.66993C39.0406 6.28296 38.205 5.95203 37.3332 5.68134V8.53322C37.3332 9.17322 36.9066 9.59984 36.2666 9.59984C35.6266 9.59984 35.2 9.17322 35.2 8.53322V4.26652V3.19991C35.2 2.55992 34.6667 2.1333 34.1334 2.1333H29.8667C29.2267 2.1333 28.8001 2.66654 28.8001 3.19991V4.26665V8.53335C28.8001 9.17334 28.3734 9.59996 27.7335 9.59996C27.0935 9.59996 26.6668 9.17334 26.6668 8.53335V5.68134C25.8231 5.94339 25.0137 6.26212 24.2425 6.6332L25.7069 13.76C25.8135 14.08 25.7069 14.5067 25.3869 14.72C25.3205 14.7422 25.2587 14.7643 25.1996 14.7855L25.1994 14.7856L25.1993 14.7856L25.199 14.7857L25.1989 14.7857C24.9734 14.8666 24.7869 14.9334 24.5335 14.9334H24.3201L16.9413 13.477ZM17.0667 24.5332H46.9333V28.7999C46.9333 33.451 45.3378 37.5842 42.9422 40.7258L42.88 40.7465L42.56 41.0665C42.0233 41.7821 41.4569 42.4346 40.8651 43.0228C38.3535 45.3627 35.3578 46.7799 32.4712 46.9204C32.326 46.858 32.163 46.8266 32 46.8266C31.836 46.8266 31.6882 46.8587 31.5557 46.9218C29.7887 46.8407 27.9803 46.2806 26.2661 45.3225C24.5295 44.3248 22.8958 42.8865 21.4399 41.0665L21.1199 40.7465L21.0576 40.7258C18.6621 37.584 17.0665 33.4509 17.0665 28.7999V24.5332H17.0667ZM27.498 55.4364L30.3736 48.9662C26.8665 48.5384 23.7434 46.751 21.2394 44.1901C21.0913 44.0408 20.9447 43.8891 20.8 43.7334L20.3734 45.6534L21.543 47.2593C21.5819 47.2925 21.6195 47.3262 21.6534 47.3601L26.0901 53.5033L27.498 55.4364ZM2.1333 58.3469C2.1333 56.9603 2.87992 55.6802 4.16003 55.0402C10.9591 51.4281 15.8536 49.6152 20.2136 49.0737L26.579 57.826L25.7708 61.8667H2.1333V58.3469ZM38.2294 61.8668H61.8668V58.3468C61.8668 56.9602 61.12 55.6801 59.8401 54.9335C53.1823 51.4461 48.2002 49.6346 43.8555 48.979L37.4213 57.826L38.2294 61.8668Z" fill="#F7B500"/>
</svg>
