<svg width="32" height="32" viewBox="0 0 32 32" fill="none" xmlns="http://www.w3.org/2000/svg">
<path d="M10.6906 28.6774C10.6906 29.264 10.2152 29.7396 9.62837 29.7396C9.04175 29.7396 8.56613 29.264 8.56613 28.6774C8.56613 28.0908 9.04175 27.6151 9.62837 27.6151C10.2152 27.6151 10.6906 28.0908 10.6906 28.6774Z" fill="#F7B500"/>
<path fill-rule="evenodd" clip-rule="evenodd" d="M28.7487 25.4907H25.0309V24.4284H28.2176C28.5112 24.4284 28.7487 24.1906 28.7487 23.8973V19.6483C28.7487 19.5075 28.693 19.3724 28.5931 19.2728L27.1554 17.8351V16.9927C27.1554 16.1128 26.4422 15.3994 25.562 15.3994H22.2303L21.693 13.3965C21.0674 11.0602 19.4103 9.13692 17.1922 8.17297L5.56874 3.08376C5.3732 2.99948 5.16625 2.94579 4.95463 2.92453L4.92169 1.77826C4.87008 0.924268 4.25183 0.211353 3.41365 0.0394134C2.57548 -0.132267 1.72641 0.279818 1.34311 1.04486L0.521796 2.68231C0.2233 3.27982 0.0679574 3.93879 0.0682168 4.6071C0.0679574 5.10114 0.107636 5.59465 0.186733 6.08246L2.07444 17.8797L1.87371 18.029C0.670136 18.9315 -0.00517535 20.374 0.0723661 21.8766C0.150167 23.3789 0.970447 24.744 2.2609 25.5176L2.98315 25.9479C3.06536 25.9966 3.1595 26.022 3.25494 26.0218H5.91054C6.1066 26.0218 6.28658 25.9139 6.37916 25.7412C6.47148 25.5685 6.46137 25.3589 6.35245 25.1958L5.37942 23.7381V18.055C5.37864 17.9795 5.3719 17.904 5.35893 17.8299L5.07522 7.42842L13.5239 12.0049C14.2575 12.4035 14.8351 13.0381 15.1629 13.806H12.284C12.1066 13.806 11.9409 13.8947 11.8423 14.0423L9.71785 17.229C9.65976 17.3164 9.62864 17.4191 9.62838 17.5239V23.8973C9.62838 24.1906 9.86619 24.4284 10.1595 24.4284H13.3462V25.4907H9.62838C7.86853 25.4907 6.44166 26.9175 6.44166 28.6774C6.44166 30.4372 7.86853 31.8641 9.62838 31.8641H28.7487C30.5088 31.8641 31.9354 30.4372 31.9354 28.6774C31.9354 26.9175 30.5088 25.4907 28.7487 25.4907ZM13.8773 26.5529H26.3799C25.2894 27.7593 25.2894 29.5954 26.3799 30.8018H11.9974C13.0879 29.5954 13.0879 27.7593 11.9974 26.5529H13.8773ZM26.0931 17.5238V16.9927C26.0931 16.6994 25.8556 16.4616 25.562 16.4616H21.8441C21.5508 16.4616 21.313 16.6994 21.313 16.9927V17.5238H26.0931ZM3.97538 17.562C3.99742 17.5724 4.01895 17.584 4.03944 17.5973C4.07289 17.6146 4.10427 17.6359 4.13306 17.6603C4.15354 17.6792 4.17247 17.6997 4.18985 17.7215C4.22927 17.7692 4.26065 17.8231 4.28269 17.8807C4.29125 17.9095 4.29696 17.9391 4.30033 17.9689L4.30448 18.1162C4.27595 18.3815 4.05318 18.5835 3.78606 18.5861C3.49275 18.5861 3.25494 18.3483 3.25494 18.055C3.25494 17.7617 3.49275 17.5239 3.78606 17.5239C3.85116 17.5246 3.91521 17.5376 3.97538 17.562ZM2.80682 24.6053L3.40121 24.9595H4.91807L4.40666 24.1922C4.34857 24.1048 4.31745 24.0021 4.31719 23.8973V19.5506C3.70256 19.779 3.0104 19.5954 2.58949 19.0923C2.51377 19.0739 2.44271 19.0391 2.38202 18.9904C1.51973 19.7041 1.05759 20.7917 1.14214 21.9077C1.22642 23.0236 1.84701 24.0293 2.80682 24.6053ZM4.26428 16.5397C4.25063 16.5352 4.23698 16.5318 4.22333 16.5284L4.20515 16.5238C4.19202 16.5203 4.17898 16.5164 4.16592 16.5125L4.1659 16.5125L4.16589 16.5125L4.16587 16.5125L4.16586 16.5125L4.16584 16.5125L4.16583 16.5125L4.16581 16.5125C4.13945 16.5047 4.11306 16.4968 4.08586 16.4919C3.98705 16.472 3.88669 16.4619 3.78606 16.4616C3.68389 16.4621 3.58197 16.4725 3.48186 16.4925C3.46063 16.4964 3.44044 16.5026 3.42023 16.5087C3.4086 16.5123 3.39697 16.5158 3.38513 16.5189C3.32133 16.5347 3.25832 16.5544 3.19659 16.5773C3.17347 16.5869 3.15142 16.5977 3.12893 16.6088L3.12875 16.6089L3.12854 16.609L3.12833 16.6091L3.12808 16.6092L3.12781 16.6093C3.1156 16.6153 3.10325 16.6214 3.09052 16.6273C3.07866 16.6333 3.0667 16.639 3.05475 16.6448L3.0547 16.6448C3.02172 16.6608 2.98876 16.6768 2.95774 16.6958L1.23679 5.91311C1.16625 5.48131 1.13072 5.04459 1.13046 4.60709C1.13046 4.1032 1.24768 3.60606 1.47305 3.15533L2.28995 1.52177C2.41288 1.29226 2.63409 1.13173 2.89032 1.08635C3.14654 1.0407 3.40951 1.11513 3.60401 1.28811C3.75339 1.42815 3.84519 1.61902 3.86101 1.82338L3.89784 3.10709C3.20204 3.43023 2.7482 4.11773 2.7246 4.88432C2.701 5.65092 3.11179 6.36513 3.78606 6.73054L3.99872 6.84361L4.26428 16.5397ZM4.29281 5.79616L14.0319 11.0692L14.0293 11.0713C15.1092 11.6566 15.9214 12.6364 16.2967 13.806H18.6574C18.951 13.806 19.1886 14.0438 19.1886 14.3371V17.5239H20.2508V16.9927C20.2524 16.3755 20.6102 15.8148 21.1691 15.5534L20.6647 13.6732C20.1224 11.6486 18.686 9.98184 16.7635 9.14652L5.14266 4.05783C4.66833 3.85555 4.1188 4.06016 3.8924 4.5236C3.66574 4.98677 3.84183 5.54616 4.29281 5.79616ZM10.6906 17.6831L12.5682 14.8683H18.1263V16.4616H17.0641C16.9232 16.4616 16.7884 16.5176 16.6888 16.6172L13.5021 19.8039C13.4022 19.9035 13.3465 20.0386 13.3462 20.1795V21.2417H10.6906V17.6831ZM18.1263 21.2417V17.5239H17.284L14.4085 20.3994V21.2417H18.1263ZM10.6906 22.3039H18.6574C18.951 22.3039 19.1885 22.0661 19.1885 21.7728V18.5861H26.4046L27.6865 19.8682V23.3662H10.6906V22.3039ZM23.9686 24.4284H14.4085V25.4906H23.9686V24.4284ZM7.50391 28.6774C7.50391 27.5041 8.45515 26.5529 9.62839 26.5529C10.8019 26.5529 11.7529 27.5041 11.7529 28.6774C11.7529 29.8506 10.8019 30.8018 9.62839 30.8018C8.45515 30.8018 7.50391 29.8506 7.50391 28.6774ZM26.6242 28.6774C26.6242 29.8506 27.5755 30.8018 28.7487 30.8018C29.9222 30.8018 30.8732 29.8506 30.8732 28.6774C30.8732 27.5041 29.9222 26.5529 28.7487 26.5529C27.5755 26.5529 26.6242 27.5041 26.6242 28.6774Z" fill="#F7B500"/>
<path d="M29.8109 28.6774C29.8109 29.264 29.3356 29.7396 28.7487 29.7396C28.1621 29.7396 27.6865 29.264 27.6865 28.6774C27.6865 28.0908 28.1621 27.6151 28.7487 27.6151C29.3356 27.6151 29.8109 28.0908 29.8109 28.6774Z" fill="#F7B500"/>
<path d="M20.2508 28.1463H21.313V29.2085H20.2508V28.1463Z" fill="#F7B500"/>
<path d="M17.0641 28.1463H18.1263V29.2085H17.0641V28.1463Z" fill="#F7B500"/>
<path d="M23.4375 28.1463H24.4997V29.2085H23.4375V28.1463Z" fill="#F7B500"/>
<path d="M13.8773 28.1463H14.9396V29.2085H13.8773V28.1463Z" fill="#F7B500"/>
<path d="M25.0309 19.6483H26.0931V21.2417H25.0309V19.6483Z" fill="#F7B500"/>
<path d="M22.9064 19.6483H23.9686V21.2417H22.9064V19.6483Z" fill="#F7B500"/>
</svg>
