<svg width="32" height="32" viewBox="0 0 32 32" fill="none" xmlns="http://www.w3.org/2000/svg">
<path d="M13.8667 10.1333C12.9845 10.1333 12.2667 10.8512 12.2667 11.7333H13.3333C13.3333 11.4395 13.5723 11.2 13.8667 11.2C14.1611 11.2 14.4 11.4395 14.4 11.7333H15.4667C15.4667 10.8512 14.7488 10.1333 13.8667 10.1333Z" fill="#F7B500"/>
<path d="M18.1333 10.1333C17.2512 10.1333 16.5333 10.8512 16.5333 11.7333H17.6C17.6 11.4395 17.8389 11.2 18.1333 11.2C18.4277 11.2 18.6667 11.4395 18.6667 11.7333H19.7333C19.7333 10.8512 19.0155 10.1333 18.1333 10.1333Z" fill="#F7B500"/>
<path fill-rule="evenodd" clip-rule="evenodd" d="M13.8667 26.6667C13.8667 25.4901 14.8235 24.5333 16 24.5333C17.1765 24.5333 18.1333 25.4901 18.1333 26.6667C18.1333 27.8432 17.1765 28.8 16 28.8C14.8235 28.8 13.8667 27.8432 13.8667 26.6667ZM14.9333 26.6667C14.9333 27.2549 15.4117 27.7333 16 27.7333C16.5883 27.7333 17.0667 27.2549 17.0667 26.6667C17.0667 26.0784 16.5883 25.6 16 25.6C15.4117 25.6 14.9333 26.0784 14.9333 26.6667Z" fill="#F7B500"/>
<path fill-rule="evenodd" clip-rule="evenodd" d="M28.8 30.9333V24C28.8 19.5888 25.2112 16 20.8 16H20.2192C20.4091 15.8331 20.5877 15.6549 20.7568 15.4667H21.3333C22.8037 15.4667 24 14.2704 24 12.8V11.8603C24.6427 11.4293 25.0667 10.6965 25.0667 9.86667C25.0667 9.0336 24.6395 8.29973 23.9936 7.86933C23.9227 3.51893 20.3675 0 16 0C11.6325 0 8.07733 3.51893 8.0064 7.86933C7.36053 8.29973 6.93333 9.0336 6.93333 9.86667C6.93333 11.1899 8.01013 12.2667 9.33333 12.2667H9.69653C9.94613 13.7445 10.7013 15.0496 11.7813 16H11.2C6.7888 16 3.2 19.5888 3.2 24V30.9333H0V32H3.73333H6.4H25.6H28.2667H32V30.9333H28.8ZM22.9333 12.8C22.9333 13.6091 22.3275 14.2725 21.5472 14.3781C21.9168 13.7355 22.176 13.0235 22.3035 12.2667H22.6667C22.7316 12.2667 22.7943 12.258 22.857 12.2494C22.8824 12.2459 22.9078 12.2424 22.9333 12.2395V12.8ZM22.6667 11.2C23.4021 11.2 24 10.6016 24 9.86667C24 9.13173 23.4021 8.53333 22.6667 8.53333H22.4V11.2H22.6667ZM9.6 11.2H9.33333C8.59787 11.2 8 10.6016 8 9.86667C8 9.13173 8.59787 8.53333 9.33333 8.53333H9.6V11.2ZM9.16894 7.48149C9.22308 7.47407 9.27709 7.46667 9.33332 7.46667H9.69652C10.2064 4.4448 12.8352 2.13333 16 2.13333C19.1648 2.13333 21.7936 4.4448 22.3035 7.46667H22.6667C22.7229 7.46667 22.7769 7.47407 22.831 7.48149L22.8311 7.48149C22.8565 7.48498 22.882 7.48847 22.9077 7.4912C22.6453 3.9056 19.6512 1.06667 16 1.06667C12.3488 1.06667 9.35465 3.9056 9.09225 7.4912C9.11801 7.48847 9.14349 7.48498 9.16894 7.48149ZM21.3328 8.52C17.4837 8.38453 14.9333 6.81066 14.9333 5.33333C14.9333 5.03893 14.6949 4.8 14.4 4.8C14.1051 4.8 13.8667 5.03893 13.8667 5.33333C13.8667 6.66613 12.4885 7.77066 10.6976 7.9664C10.9819 5.2912 13.2512 3.2 16 3.2C18.936 3.2 21.3253 5.5856 21.3328 8.52ZM10.6667 9.0368V11.2C10.6667 13.3568 11.9557 15.2139 13.8011 16.0533C15.2011 16.6891 16.7984 16.6891 18.1979 16.0533C18.5499 15.8933 18.88 15.696 19.1861 15.4667H16V14.4H20.2565C20.9291 13.5072 21.3333 12.4016 21.3333 11.2V9.58933C18.1744 9.4832 15.5669 8.44266 14.4512 6.96426C13.7456 8.08906 12.3323 8.89226 10.6667 9.0368ZM14.3515 17.3771C14.8784 17.5179 15.4293 17.6 16 17.6C16.5707 17.6 17.1216 17.5179 17.6485 17.3771L16 20.6741L14.3515 17.3771ZM14.1963 21.3333H15.1371L13.0037 17.0667H12.0629L14.1963 21.3333ZM18.9963 17.0667H19.9371L17.8037 21.3333H16.8629L18.9963 17.0667ZM5.86666 30.9333V24C5.86666 22.5296 7.06293 21.3333 8.53333 21.3333H13.0037L10.8784 17.0832C7.20533 17.2528 4.26666 20.2853 4.26666 24V30.9333H5.86666ZM25.0667 30.9333H6.93332V24C6.93332 23.1179 7.65119 22.4 8.53332 22.4H13.8667H16H18.1333H23.4667C24.3488 22.4 25.0667 23.1179 25.0667 24V30.9333ZM26.1333 30.9333H27.7333V24C27.7333 20.2853 24.7947 17.2528 21.1216 17.0832L18.9963 21.3333H23.4667C24.9371 21.3333 26.1333 22.5296 26.1333 24V30.9333Z" fill="#F7B500"/>
<rect x="22.9333" y="26.1333" width="1.06667" height="3.73333" fill="#F7B500"/>
<rect x="22.9333" y="24" width="1.06667" height="1.06667" fill="#F7B500"/>
<rect x="27.7333" y="4.8" width="1.06667" height="1.06667" fill="#F7B500"/>
<rect x="27.7333" y="6.93333" width="1.06667" height="1.06667" fill="#F7B500"/>
<rect x="27.7333" y="9.06667" width="1.06667" height="1.06667" fill="#F7B500"/>
<rect x="3.20001" y="11.2" width="1.06667" height="1.06667" fill="#F7B500"/>
<rect x="3.20001" y="13.3333" width="1.06667" height="1.06667" fill="#F7B500"/>
<rect x="3.20001" y="15.4667" width="1.06667" height="1.06667" fill="#F7B500"/>
</svg>
