<svg width="24" height="24" viewBox="0 0 24 24" fill="none" xmlns="http://www.w3.org/2000/svg">
<path fill-rule="evenodd" clip-rule="evenodd" d="M16.748 13.9562C16.9917 14.0896 17.1553 14.1584 17.2137 14.2642C17.2721 14.3703 17.2536 14.8684 17.0245 15.4409C16.7954 16.0136 15.7589 16.5361 15.3013 16.5601C14.8441 16.5848 14.8314 16.9171 12.3404 15.8267C9.84975 14.7357 8.35113 12.0834 8.233 11.9128C8.11488 11.7427 7.26854 10.5266 7.3143 9.30327C7.36005 8.07952 8.02499 7.50188 8.26221 7.26206C8.49943 7.02127 8.77105 6.96934 8.93688 6.97551L9.41295 7.01413C9.55801 7.01965 9.7683 6.94468 9.95684 7.44995L10.6546 9.32469C10.712 9.45125 10.748 9.59793 10.6588 9.76084L10.3946 10.1663L10.0052 10.588C9.87604 10.7071 9.74104 10.8369 9.87701 11.091C10.013 11.3455 10.4816 12.1783 11.1962 12.8652C12.1139 13.7475 12.9057 14.0406 13.1498 14.174C13.3938 14.308 13.5395 14.2931 13.6911 14.1324L14.515 13.1874C14.6899 12.9444 14.8541 12.9922 15.079 13.0836L16.748 13.9562ZM12 2C17.5228 2 22 6.47715 22 12C22 17.5229 17.5228 22 12 22C10.0322 22 8.19707 21.4316 6.64996 20.45L2 22L3.54999 17.35C2.5684 15.8029 2 13.9678 2 12C2 6.47715 6.47715 2 12 2ZM12 4.00001C7.58172 4.00001 4 7.58173 4 12C4 13.7176 4.54129 15.3088 5.46258 16.6122L4.5 19.5L7.38775 18.5374C8.69122 19.4587 10.2824 20 12 20C16.4183 20 20 16.4183 20 12C20 7.58173 16.4183 4.00001 12 4.00001Z" fill="#F7B500"/>
</svg>
