<svg width="64" height="64" viewBox="0 0 64 64" fill="none" xmlns="http://www.w3.org/2000/svg">
<path d="M27.7333 20.2666C25.9691 20.2666 24.5333 21.7023 24.5333 23.4666H26.6667C26.6667 22.8789 27.1445 22.3999 27.7333 22.3999C28.3221 22.3999 28.8 22.8789 28.8 23.4666H30.9333C30.9333 21.7023 29.4976 20.2666 27.7333 20.2666Z" fill="#F7B500"/>
<path d="M36.2667 20.2666C34.5024 20.2666 33.0667 21.7023 33.0667 23.4666H35.2C35.2 22.8789 35.6779 22.3999 36.2667 22.3999C36.8555 22.3999 37.3333 22.8789 37.3333 23.4666H39.4667C39.4667 21.7023 38.0309 20.2666 36.2667 20.2666Z" fill="#F7B500"/>
<path fill-rule="evenodd" clip-rule="evenodd" d="M27.7333 53.3336C27.7333 50.9805 29.6469 49.0669 32 49.0669C34.3531 49.0669 36.2667 50.9805 36.2667 53.3336C36.2667 55.6866 34.3531 57.6002 32 57.6002C29.6469 57.6002 27.7333 55.6866 27.7333 53.3336ZM29.8667 53.3335C29.8667 54.5101 30.8235 55.4669 32 55.4669C33.1766 55.4669 34.1334 54.5101 34.1334 53.3335C34.1334 52.157 33.1766 51.2002 32 51.2002C30.8235 51.2002 29.8667 52.157 29.8667 53.3335Z" fill="#F7B500"/>
<path fill-rule="evenodd" clip-rule="evenodd" d="M57.6 61.8667V48C57.6 39.1776 50.4224 32 41.6 32H40.4384C40.8181 31.6661 41.1755 31.3099 41.5136 30.9333H42.6667C45.6075 30.9333 48 28.5408 48 25.6V23.7205C49.2853 22.8587 50.1333 21.3931 50.1333 19.7333C50.1333 18.0672 49.2789 16.5995 47.9872 15.7387C47.8453 7.03787 40.7349 0 32 0C23.2651 0 16.1547 7.03787 16.0128 15.7387C14.7211 16.5995 13.8667 18.0672 13.8667 19.7333C13.8667 22.3797 16.0203 24.5333 18.6667 24.5333H19.3931C19.8923 27.4891 21.4027 30.0992 23.5627 32H22.4C13.5776 32 6.4 39.1776 6.4 48V61.8667H0V64H7.46667H12.8H51.2H56.5333H64V61.8667H57.6ZM45.8667 25.6001C45.8667 27.2182 44.655 28.5451 43.0944 28.7563C43.8336 27.471 44.352 26.047 44.607 24.5334H45.3334C45.4632 24.5334 45.5886 24.5161 45.714 24.4988C45.7648 24.4918 45.8156 24.4848 45.8667 24.479V25.6001ZM45.3333 22.4002C46.8043 22.4002 48 21.2034 48 19.7336C48 18.2637 46.8043 17.0669 45.3333 17.0669H44.8V22.4002H45.3333ZM19.2 22.4002H18.6667C17.1957 22.4002 16 21.2034 16 19.7336C16 18.2637 17.1957 17.0669 18.6667 17.0669H19.2V22.4002ZM18.3379 14.9629C18.4462 14.9481 18.5542 14.9333 18.6666 14.9333H19.393C20.4128 8.88957 25.6704 4.26663 32 4.26663C38.3296 4.26663 43.5872 8.88957 44.6069 14.9333H45.3333C45.4458 14.9333 45.5538 14.9481 45.6621 14.9629L45.6621 14.963L45.6622 14.963L45.6623 14.963C45.7131 14.9699 45.764 14.9769 45.8154 14.9824C45.2906 7.81117 39.3024 2.1333 32 2.1333C24.6976 2.1333 18.7093 7.81117 18.1845 14.9824C18.236 14.9769 18.287 14.9699 18.3379 14.9629ZM42.6656 17.0399C34.9675 16.769 29.8667 13.6212 29.8667 10.6666C29.8667 10.0778 29.3899 9.5999 28.8 9.5999C28.2101 9.5999 27.7333 10.0778 27.7333 10.6666C27.7333 13.3322 24.9771 15.5412 21.3952 15.9327C21.9637 10.5823 26.5024 6.3999 32 6.3999C37.872 6.3999 42.6507 11.1711 42.6656 17.0399ZM21.3333 18.0738V22.4002C21.3333 26.7138 23.9114 30.4279 27.6021 32.1068C30.4021 33.3783 33.5968 33.3783 36.3957 32.1068C37.0997 31.7868 37.76 31.3922 38.3722 30.9335H32V28.8002H40.513C41.8581 27.0146 42.6666 24.8034 42.6666 22.4002V19.1788C36.3488 18.9666 31.1338 16.8855 28.9024 13.9287C27.4912 16.1783 24.6645 17.7847 21.3333 18.0738ZM28.7029 34.7539C29.7568 35.0355 30.8587 35.1998 32 35.1998C33.1413 35.1998 34.2432 35.0355 35.2971 34.7539L32 41.348L28.7029 34.7539ZM28.3925 42.6666H30.2741L26.0075 34.1333H24.1259L28.3925 42.6666ZM37.9926 34.1333H39.8742L35.6075 42.6666H33.7259L37.9926 34.1333ZM11.7333 61.8668V48.0001C11.7333 45.0593 14.1259 42.6668 17.0667 42.6668H26.0075L21.7568 34.1665C14.4107 34.5057 8.53333 40.5708 8.53333 48.0001V61.8668H11.7333ZM50.1333 61.8665H13.8666V47.9998C13.8666 46.2355 15.3024 44.7998 17.0666 44.7998H27.7333H32H36.2666H46.9333C48.6976 44.7998 50.1333 46.2355 50.1333 47.9998V61.8665ZM52.2667 61.8668H55.4667V48.0001C55.4667 40.5708 49.5894 34.5057 42.2432 34.1665L37.9926 42.6668H46.9334C49.8742 42.6668 52.2667 45.0593 52.2667 48.0001V61.8668Z" fill="#F7B500"/>
<rect x="45.8666" y="52.2666" width="2.13333" height="7.46667" fill="#F7B500"/>
<rect x="45.8666" y="48" width="2.13333" height="2.13333" fill="#F7B500"/>
<rect x="55.4667" y="9.6001" width="2.13333" height="2.13333" fill="#F7B500"/>
<rect x="55.4667" y="13.8667" width="2.13333" height="2.13333" fill="#F7B500"/>
<rect x="55.4667" y="18.1333" width="2.13333" height="2.13333" fill="#F7B500"/>
<rect x="6.40002" y="22.3999" width="2.13333" height="2.13333" fill="#F7B500"/>
<rect x="6.40002" y="26.6665" width="2.13333" height="2.13333" fill="#F7B500"/>
<rect x="6.40002" y="30.9331" width="2.13333" height="2.13333" fill="#F7B500"/>
</svg>
