<svg width="64" height="64" viewBox="0 0 64 64" fill="none" xmlns="http://www.w3.org/2000/svg">
<g clip-path="url(#clip0)">
<path d="M63.8823 15.1762C63.662 14.357 63.1246 13.6587 62.3893 13.2353C61.6535 12.8099 60.7787 12.6948 59.958 12.9151C59.1383 13.1359 58.44 13.6728 58.0166 14.4081L57.4834 15.336C56.9767 15.0449 56.3294 15.2162 56.0331 15.7203L53.3242 20.3378L52.3962 19.8045C52.1505 19.6624 51.8578 19.6238 51.5839 19.6978C51.3094 19.7722 51.0762 19.9524 50.935 20.1993C50.646 20.7091 50.822 21.3569 51.3298 21.6495L52.2577 22.1828L43.1926 37.8921L40.9529 43.8754L39.8864 45.8694C39.262 46.9556 39.3287 48.3059 40.0572 49.325L37.6576 52.2683L36.9858 50.5837C36.6828 49.8327 35.9813 49.3182 35.1747 49.2552C34.3675 49.1917 33.5942 49.5906 33.1782 50.2848L32.7944 50.9352L32.4319 46.6692C32.3486 45.66 31.567 44.8487 30.5619 44.7268C29.5564 44.6055 28.6045 45.208 28.2832 46.1683L25.6597 54.0388C25.4763 54.5955 25.7763 55.1954 26.3314 55.3828C26.4356 55.4313 26.5475 55.4604 26.6621 55.4677C27.1203 55.4693 27.5286 55.1771 27.6755 54.7428L30.288 46.8723L30.6614 51.2018C30.7385 52.1256 31.4024 52.8937 32.3054 53.103C33.2084 53.3124 34.1426 52.9145 34.618 52.1193L35.0127 51.4684L35.6741 53.1431C35.9548 53.8487 36.5896 54.3523 37.341 54.4642C38.0924 54.5762 38.8465 54.2799 39.3214 53.6868L41.8064 50.541C42.0813 50.6128 42.3646 50.6488 42.6489 50.6477C43.792 50.6566 44.8533 50.0546 45.4323 49.0688L46.4988 47.2879L50.5622 42.3502L59.7231 26.4487L60.6511 26.982C60.8984 27.1236 61.0786 27.3574 61.152 27.6329C61.226 27.9063 61.1875 28.1979 61.0458 28.4432L56.7799 35.8341C56.619 36.0768 56.5643 36.3746 56.6289 36.659C56.6934 36.9428 56.871 37.188 57.121 37.3375C57.3667 37.4802 57.6594 37.5187 57.9333 37.4448C58.2078 37.3703 58.441 37.1901 58.5822 36.9433L62.8481 29.5523C63.2736 28.8165 63.3886 27.9417 63.1678 27.121C62.947 26.3013 62.4102 25.603 61.6749 25.1797L60.7469 24.6464L63.4131 20.0285C63.7042 19.5218 63.5329 18.875 63.0293 18.5782L63.5626 17.6502C63.9995 16.9029 64.1151 16.0104 63.8823 15.1762ZM59.8616 15.4745C60.0028 15.2277 60.2371 15.047 60.5126 14.9736C60.7865 14.9059 61.076 14.9439 61.3228 15.0803C61.5702 15.2215 61.7504 15.4558 61.8243 15.7307C61.892 16.0047 61.854 16.2942 61.7176 16.541L61.1843 17.469L59.3284 16.4025L59.8616 15.4745ZM45.3256 45.2512L44.7923 44.9419L43.214 44.0244L44.7283 39.9719L48.0876 41.9127L45.3256 45.2512ZM42.1261 48.333C41.6757 48.019 41.5372 47.4149 41.8064 46.9358L42.3396 46.0084L44.195 47.0749L43.6618 47.9919C43.5123 48.2512 43.2613 48.4356 42.9692 48.5007C42.6771 48.5653 42.3714 48.5048 42.1261 48.333ZM49.3035 40.1641L45.6135 38.0311L54.1454 23.2493L57.8354 25.3822L49.3035 40.1641ZM58.9019 23.5372L55.2119 21.4043L57.3449 17.7143L61.0349 19.8472L58.9019 23.5372Z" fill="#F7B500"/>
<path d="M16.8289 47.7999L13.0541 51.5649L10.793 49.3038C10.3769 48.8903 9.70516 48.8903 9.28908 49.3038C9.08703 49.5043 8.97351 49.7766 8.97351 50.061C8.97351 50.3453 9.08703 50.6181 9.28908 50.8181L11.5502 53.0792C11.9501 53.476 12.4906 53.6983 13.0541 53.6978C13.6206 53.7009 14.1659 53.4786 14.5684 53.0792L18.3328 49.3038C18.6953 48.8804 18.6708 48.2498 18.2771 47.8561C17.8829 47.4619 17.2523 47.4374 16.8289 47.7999Z" fill="#F7B500"/>
<path d="M4.26599 50.6686C4.26599 55.6755 8.32468 59.7337 13.3311 59.7337C18.3376 59.7337 22.3962 55.6755 22.3962 50.6686C22.3962 50.0796 21.9187 49.6021 21.3298 49.6021C20.7408 49.6021 20.2633 50.0796 20.2633 50.6686C20.2633 54.4971 17.1596 57.6007 13.3311 57.6007C9.5026 57.6007 6.39896 54.4971 6.39896 50.6686C6.39896 46.8401 9.5026 43.7364 13.3311 43.7364C14.8319 43.7323 16.2926 44.2192 17.4903 45.1232C17.9616 45.4768 18.6302 45.3809 18.9833 44.9097C19.3369 44.4384 19.2416 43.7703 18.7703 43.4167C16.0234 41.3566 12.3479 41.0254 9.27712 42.5606C6.20577 44.0963 4.26599 47.2353 4.26599 50.6686Z" fill="#F7B500"/>
<path d="M38.3934 8.54264C38.9823 8.54264 39.4599 8.06564 39.4599 7.47615C39.4599 6.88719 38.9823 6.40967 38.3934 6.40967H10.6648C10.0758 6.40967 9.59827 6.88719 9.59827 7.47615V11.7421C9.59827 12.3316 10.0758 12.8086 10.6648 12.8086H38.3934C38.9823 12.8086 39.4599 12.3316 39.4599 11.7421C39.4599 11.1531 38.9823 10.6756 38.3934 10.6756H11.7312V8.54264H38.3934Z" fill="#F7B500"/>
<path d="M13.8643 14.9414C13.2754 14.9414 12.7979 15.4189 12.7979 16.0079C12.7979 16.5974 13.2754 17.0744 13.8643 17.0744H35.194C35.783 17.0744 36.2605 16.5974 36.2605 16.0079C36.2605 15.4189 35.783 14.9414 35.194 14.9414H13.8643Z" fill="#F7B500"/>
<path d="M41.593 22.407H18.1303C17.5414 22.407 17.0638 22.8845 17.0638 23.4735C17.0638 24.0629 17.5414 24.5399 18.1303 24.5399H41.593C42.182 24.5399 42.6595 24.0629 42.6595 23.4735C42.6595 22.8845 42.182 22.407 41.593 22.407Z" fill="#F7B500"/>
<path d="M30.928 29.8721C30.928 29.2832 30.4505 28.8057 29.8615 28.8057H8.53182C7.94285 28.8057 7.46533 29.2832 7.46533 29.8721C7.46533 30.4616 7.94285 30.9386 8.53182 30.9386H29.8615C30.4505 30.9386 30.928 30.4616 30.928 29.8721Z" fill="#F7B500"/>
<path d="M41.5929 28.8057H34.1275C33.5386 28.8057 33.061 29.2832 33.061 29.8721C33.061 30.4616 33.5386 30.9386 34.1275 30.9386H41.5929C42.1819 30.9386 42.6594 30.4616 42.6594 29.8721C42.6594 29.2832 42.1819 28.8057 41.5929 28.8057Z" fill="#F7B500"/>
<path d="M19.1967 36.2712C19.7856 36.2712 20.2632 35.7942 20.2632 35.2047C20.2632 34.6157 19.7856 34.1382 19.1967 34.1382H8.53182C7.94285 34.1382 7.46533 34.6157 7.46533 35.2047C7.46533 35.7942 7.94285 36.2712 8.53182 36.2712H19.1967Z" fill="#F7B500"/>
<path d="M23.4626 36.2712H30.928C31.517 36.2712 31.9945 35.7942 31.9945 35.2047C31.9945 34.6157 31.517 34.1382 30.928 34.1382H23.4626C22.8736 34.1382 22.3961 34.6157 22.3961 35.2047C22.3961 35.7942 22.8736 36.2712 23.4626 36.2712Z" fill="#F7B500"/>
<path d="M47.9918 49.0691C47.4029 49.0691 46.9253 49.5466 46.9253 50.1355V60.8004C46.9253 61.3899 46.4478 61.8669 45.8589 61.8669H3.19945C2.61049 61.8669 2.13297 61.3899 2.13297 60.8004V3.2102C2.13297 2.62124 2.61049 2.14371 3.19945 2.14371H45.8589C46.4478 2.14371 46.9253 2.62124 46.9253 3.2102V23.2391C46.9253 23.828 47.4029 24.3056 47.9918 24.3056C48.5808 24.3056 49.0583 23.828 49.0583 23.2391V3.2102C49.0583 1.44331 47.6257 0.0107422 45.8589 0.0107422H3.19945C1.43257 0.0107422 0 1.44331 0 3.2102V60.8004C0 62.5678 1.43257 63.9998 3.19945 63.9998H45.8589C47.6257 63.9998 49.0583 62.5678 49.0583 60.8004V50.1355C49.0583 49.5466 48.5808 49.0691 47.9918 49.0691Z" fill="#F7B500"/>
</g>
<defs>
<clipPath id="clip0">
<rect width="64" height="64" fill="white"/>
</clipPath>
</defs>
</svg>
