<svg width="32" height="32" viewBox="0 0 32 32" fill="none" xmlns="http://www.w3.org/2000/svg">
<path fill-rule="evenodd" clip-rule="evenodd" d="M30.4 26.56C27.2169 24.872 24.7753 23.9255 22.6017 23.5626L22.8267 23.2534C22.9334 23.1467 22.9867 22.9867 22.9334 22.8267L22.4335 20.8275C23.7555 18.9587 24.5333 16.6224 24.5333 14.4V12.2667H25.0666H26.1333C26.4533 12.2667 26.6666 12.0534 26.6666 11.7334C26.6666 11.4134 26.4533 11.2001 26.1333 11.2001H25.6V10.6668C25.6 6.45343 22.8267 2.88009 18.6667 1.70673V1.59998C18.6667 0.746615 17.9734 0 17.0667 0H14.9333C14.08 0 13.3333 0.693304 13.3333 1.59998V1.70667C9.17333 2.88003 6.39999 6.45336 6.39999 10.6667V11.2H5.86668C5.54669 11.2 5.33338 11.4133 5.33338 11.7333C5.33338 12.0533 5.54669 12.2666 5.86668 12.2666H6.93336H7.46666V14.4C7.46666 16.6223 8.24454 18.9586 9.56646 20.8275L9.06664 22.8267C9.06664 22.9334 9.06664 23.1467 9.17333 23.2534L9.39827 23.5626C7.22476 23.9256 4.7831 24.872 1.59998 26.56C0.586681 27.0401 0 28.0534 0 29.1733V31.4667C0 31.7867 0.21331 32 0.533306 32H13.3333H13.5467H18.4533H18.6667H31.4667C31.7867 32 32 31.7867 32 31.4667V29.1733C32.0001 28.1067 31.36 27.0934 30.4 26.56ZM15.6802 26.0663L16.0031 25.3399L16.8002 27.0937L17.3216 28.2667H14.7201L15.6802 26.0663ZM17.6813 29.3333H14.3147L13.9947 30.9333H17.9861L17.6813 29.3333ZM21.6 21.8667L21.8133 22.8267L21.2685 23.5747C21.2337 23.6032 21.2016 23.6376 21.1733 23.68L18.9549 26.7516L18.251 27.7181L16.8132 24.483C18.5319 24.2734 20.0661 23.4106 21.3052 22.1707L21.319 22.1572L21.3464 22.1299L21.3563 22.1198C21.4385 22.0374 21.5197 21.9532 21.6 21.8667ZM21.0812 4.02098C21.0231 3.98018 20.9644 3.94015 20.9052 3.90076L20.4267 6.23998L22.88 5.75999C22.3885 5.12108 21.761 4.5276 21.0812 4.02098ZM11.5734 6.23998L9.12003 5.75999C9.61152 5.12101 10.2391 4.52753 10.919 4.02091C10.977 3.98018 11.0357 3.94015 11.0949 3.90076L11.5734 6.23998ZM8.47063 6.73854C7.82397 7.9086 7.46667 9.24749 7.46667 10.6667H7.46674V11.2H8.00004H24H24.5333V10.6667C24.5333 9.22995 24.1673 7.87537 23.5055 6.69502L19.84 7.46673H19.7333C19.5733 7.46673 19.4667 7.41342 19.36 7.30673C19.2533 7.20005 19.2 6.98674 19.2 6.82674L19.9174 3.33499C19.5203 3.14151 19.1025 2.97605 18.6666 2.8407V4.26664C18.6666 4.58664 18.4533 4.79995 18.1333 4.79995C17.8133 4.79995 17.6 4.58664 17.6 4.26664V2.13329V1.59999C17.6 1.27999 17.3334 1.06668 17.0667 1.06668H14.9333C14.6133 1.06668 14.4 1.3333 14.4 1.59999V2.13336V4.26671C14.4 4.5867 14.1867 4.80001 13.8667 4.80001C13.5467 4.80001 13.3334 4.5867 13.3334 4.26671V2.8407C12.9116 2.97173 12.5069 3.13109 12.1212 3.31663L12.8534 6.88005C12.9067 7.04005 12.8534 7.25336 12.6934 7.36004C12.6602 7.37111 12.6294 7.38218 12.5998 7.39277L12.5997 7.39281L12.5996 7.39283L12.5995 7.39288L12.5995 7.39289C12.4867 7.43331 12.3934 7.46673 12.2667 7.46673H12.1601L8.47063 6.73854ZM8.53333 12.2667H23.4667V14.4C23.4667 16.7256 22.6689 18.7921 21.4711 20.363L21.44 20.3733L21.28 20.5333C21.0117 20.8911 20.7284 21.2173 20.4325 21.5115C19.1768 22.6814 17.6789 23.39 16.2356 23.4602C16.163 23.429 16.0815 23.4133 16 23.4133C15.918 23.4133 15.8441 23.4294 15.7778 23.4609C14.8944 23.4204 13.9902 23.1404 13.1331 22.6613C12.2648 22.1625 11.4479 21.4433 10.7199 20.5333L10.5599 20.3733L10.5288 20.363C9.33103 18.7921 8.53326 16.7255 8.53326 14.4V12.2667H8.53333ZM13.749 27.7182L15.1868 24.4831C13.4332 24.2693 11.8717 23.3755 10.6197 22.0951C10.5457 22.0205 10.4723 21.9446 10.4 21.8667L10.1867 22.8267L10.7715 23.6297C10.7909 23.6463 10.8097 23.6631 10.8267 23.6801L13.0451 26.7517L13.749 27.7182ZM1.06668 29.1734C1.06668 28.48 1.43999 27.84 2.08004 27.52C5.47959 25.7139 7.92684 24.8075 10.1068 24.5368L13.2895 28.9129L12.8854 30.9333H1.06668V29.1734ZM19.1147 30.9334H30.9334V29.1734C30.9334 28.4801 30.56 27.8401 29.92 27.4668C26.5911 25.723 24.1001 24.8173 21.9277 24.4895L18.7106 28.913L19.1147 30.9334Z" fill="#F7B500"/>
</svg>
