<svg width="64" height="64" viewBox="0 0 64 64" fill="none" xmlns="http://www.w3.org/2000/svg">
<g clip-path="url(#clip0)">
<path d="M43.0269 34.5944L37.5791 32.1731C37.1942 32.0021 36.9457 31.6195 36.9457 31.1985V29.7025C38.7757 28.2444 39.952 25.999 39.952 23.4827V21.3768C40.5549 21.0437 40.954 20.4 40.954 19.679V19.4746C40.954 15.0901 37.3869 11.5229 33.0023 11.5229H30.9983C26.6138 11.5229 23.0467 15.0901 23.0467 19.4746V21.329C23.0467 21.9627 23.3194 22.5368 23.7948 22.9042C23.8754 22.9665 23.9603 23.0212 24.0487 23.0686V23.4826C24.0487 25.9989 25.2248 28.2442 27.0547 29.7022V31.1984C27.0547 31.6194 26.8061 32.002 26.4213 32.173L20.9736 34.5942C19.1894 35.3871 18.0366 37.1611 18.0366 39.1135V51.539C18.0366 52.0568 18.4563 52.4765 18.9741 52.4765C19.4918 52.4765 19.9116 52.0568 19.9116 51.539V39.1136C19.9116 39.005 19.9193 38.8976 19.9306 38.7911L22.4408 41.3014C22.8314 41.6921 23.0467 42.2115 23.0467 42.7641V51.5392C23.0467 52.0569 23.4664 52.4767 23.9842 52.4767C24.502 52.4767 24.9217 52.0569 24.9217 51.5392V42.7641C24.9217 41.7108 24.5116 40.7205 23.7667 39.9756L20.7741 36.9829C21.0437 36.7031 21.3672 36.4712 21.7352 36.3076L27.0911 33.9272L31.063 37.8991V51.539C31.063 52.0568 31.4827 52.4765 32.0005 52.4765C32.5182 52.4765 32.938 52.0568 32.938 51.539V37.8993L36.9099 33.9274L42.2656 36.3076C42.6336 36.4712 42.9571 36.7031 43.2267 36.983L40.2341 39.9756C39.4892 40.7205 39.0791 41.7108 39.0791 42.7641V51.5392C39.0791 52.0569 39.4989 52.4767 40.0166 52.4767C40.5344 52.4767 40.9541 52.0569 40.9541 51.5392V42.7641C40.9541 42.2116 41.1692 41.6921 41.56 41.3014L44.0701 38.7913C44.0814 38.8978 44.0891 39.0049 44.0891 39.1135V51.539C44.0891 52.0568 44.5089 52.4765 45.0266 52.4765C45.5444 52.4765 45.9641 52.0568 45.9641 51.539V39.1136C45.9638 37.1612 44.811 35.3872 43.0269 34.5944ZM32.0001 36.1851L28.515 32.6999C28.78 32.254 28.9296 31.7381 28.9296 31.1985V30.817C29.875 31.2142 30.9123 31.4344 32.0002 31.4344C33.0881 31.4344 34.1253 31.2144 35.0706 30.8171V31.1985C35.0706 31.7382 35.2202 32.254 35.4854 32.7L32.0001 36.1851ZM32.0002 29.5592C28.6496 29.5594 25.9236 26.8334 25.9236 23.4827V23.0611C26.5086 22.8292 27.0796 22.4602 27.6262 21.9558C28.0066 21.6047 28.0305 21.0116 27.6792 20.6311C27.3281 20.2507 26.7351 20.2268 26.3545 20.578C25.8856 21.0108 25.4171 21.2905 24.9623 21.4092C24.9513 21.4121 24.9432 21.4133 24.9375 21.4138C24.9307 21.4007 24.9216 21.3732 24.9216 21.3291V19.4747C24.9216 16.1241 27.6476 13.3981 30.9982 13.3981H33.0022C36.353 13.3981 39.0789 16.1241 39.0789 19.4747V19.6791C39.0789 19.7095 39.0606 19.7358 39.0366 19.7406C33.4227 20.8493 30.607 18.7597 29.657 17.8097C29.2908 17.4436 28.6972 17.4436 28.3312 17.8097C27.9651 18.1758 27.9651 18.7695 28.3312 19.1355C31.2425 22.0467 35.4906 22.0992 38.0769 21.7885V23.4826C38.0769 26.8332 35.3509 29.5592 32.0002 29.5592Z" fill="#F7B500"/>
<path d="M16.9053 29.4952V27.4908C16.9053 25.0451 15.6343 22.8921 13.7192 21.6531C13.8374 21.2737 13.8992 20.8763 13.8992 20.4767C13.8992 18.3022 12.1301 16.5332 9.95564 16.5332C7.78114 16.5332 6.01214 18.3023 6.01214 20.4767C6.01214 20.8813 6.07339 21.2748 6.19189 21.6533C4.27688 22.8922 3.00601 25.0452 3.00601 27.4908V29.4949C3.00601 31.8632 4.19763 33.9575 6.01201 35.2127V37.2744C6.01201 37.681 5.78614 38.0465 5.42251 38.2284L2.17988 39.8496C0.835252 40.5221 0 41.8736 0 43.377V51.5394C0 52.0571 0.419751 52.4769 0.937502 52.4769C1.45525 52.4769 1.875 52.0571 1.875 51.5394V43.7825L3.40226 45.3098C3.79288 45.7005 4.00813 46.2199 4.00813 46.7725V51.5394C4.00813 52.0571 4.42788 52.4769 4.94563 52.4769C5.46339 52.4769 5.88314 52.0571 5.88314 51.5394V46.7725C5.88314 45.7191 5.47289 44.7289 4.72813 43.984L2.6025 41.8584C2.59225 41.8481 2.58125 41.8393 2.57076 41.8296C2.70413 41.7119 2.85376 41.6094 3.01851 41.5269L6.26114 39.9056C6.42726 39.8225 6.58189 39.7244 6.72601 39.6154L9.01814 41.9076V51.5395C9.01814 52.0573 9.43789 52.477 9.95564 52.477C10.4734 52.477 10.8931 52.0573 10.8931 51.5395V41.9075L13.1854 39.6152C13.3297 39.7244 13.4842 39.8225 13.6503 39.9055L14.5444 40.3526C14.679 40.42 14.822 40.4519 14.963 40.4519C15.3069 40.4519 15.638 40.2619 15.8023 39.9335C16.0339 39.4704 15.8462 38.9072 15.383 38.6757L14.4889 38.2286C14.1252 38.0467 13.8993 37.6812 13.8993 37.2747V35.2131C15.7137 33.9579 16.9053 31.8635 16.9053 29.4952ZM9.95564 18.4082C11.0963 18.4082 12.0241 19.3362 12.0241 20.4767C12.0241 20.6023 12.0129 20.7255 11.9914 20.8461C11.3471 20.6483 10.6638 20.5412 9.95564 20.5412C9.24852 20.5412 8.56602 20.648 7.92277 20.8452C7.90114 20.7246 7.88714 20.6021 7.88714 20.4767C7.88714 19.3361 8.81502 18.4082 9.95564 18.4082ZM9.95564 22.4163C12.7538 22.4163 15.0303 24.6928 15.0303 27.491V27.8307C11.1271 29.0257 8.80102 26.0566 8.70164 25.9265C8.53852 25.7091 8.28914 25.5731 8.01814 25.5538C7.74714 25.5348 7.48089 25.634 7.28876 25.8261C6.39389 26.721 5.51739 27.1526 4.88438 27.361C4.95376 24.6227 7.20114 22.4163 9.95564 22.4163ZM9.95564 40.1933L7.78926 38.0269C7.85251 37.7851 7.88714 37.5331 7.88714 37.2745V36.1301C8.54077 36.3344 9.23564 36.4445 9.95564 36.4445C10.6756 36.4445 11.3705 36.3344 12.0241 36.1301V37.2745C12.0241 37.5331 12.0588 37.7852 12.122 38.0269L9.95564 40.1933ZM9.95564 34.5695C7.15751 34.5695 4.88101 32.293 4.88101 29.4949V29.3006C5.62864 29.1289 6.73714 28.7297 7.89352 27.7997C8.30264 28.1857 8.88739 28.6592 9.63202 29.0654C10.5128 29.5457 11.7291 29.9901 13.2149 29.9901C13.7795 29.9901 14.3837 29.9245 15.0223 29.7737C14.8769 32.4427 12.6601 34.5695 9.95564 34.5695Z" fill="#F7B500"/>
<path d="M61.8203 37.8455L56.5736 35.2221C56.21 35.0403 55.9841 34.6748 55.9841 34.2683V32.9396C57.2122 31.8493 57.9881 30.2603 57.9881 28.4928V27.4256C58.0097 27.4256 58.031 27.4263 58.0526 27.4263C58.5704 27.4263 58.9901 27.0065 58.9901 26.4887V24.4847C58.9901 21.2052 56.322 18.5371 53.0425 18.5371H51.0385C47.759 18.5371 45.0909 21.2052 45.0909 24.4847V26.4887C45.0909 27.0065 45.5106 27.4263 46.0284 27.4263C46.0361 27.4263 46.0586 27.426 46.0929 27.4246V28.4928C46.0929 30.2604 46.8689 31.8494 48.097 32.9398V34.2684C48.097 34.675 47.8711 35.0405 47.5074 35.2223C47.0442 35.4538 46.8565 36.0169 47.0881 36.48C47.2524 36.8085 47.5835 36.9985 47.9274 36.9985C48.0682 36.9985 48.2112 36.9666 48.3459 36.8994C48.512 36.8163 48.6666 36.7181 48.8107 36.6091L51.103 38.9014V51.5393C51.103 52.057 51.5227 52.4768 52.0405 52.4768C52.5582 52.4768 52.978 52.057 52.978 51.5393V38.9011L55.2701 36.6089C55.4144 36.718 55.5689 36.8161 55.735 36.8991L60.8119 39.4377L59.272 40.9775C58.5273 41.7224 58.117 42.7127 58.117 43.766V51.539C58.117 52.0568 58.5368 52.4765 59.0545 52.4765C59.5723 52.4765 59.992 52.0568 59.992 51.539V43.766C59.992 43.2135 60.2071 42.694 60.5979 42.3033L62.0565 40.8447C62.1008 41.0143 62.125 41.1912 62.125 41.3727V51.539C62.125 52.0568 62.5448 52.4765 63.0625 52.4765C63.5803 52.4765 64 52.0568 64 51.539V41.3727C64.0001 39.8694 63.1649 38.5179 61.8203 37.8455ZM46.9657 25.3584V24.4846H46.9659C46.9659 22.239 48.7929 20.412 51.0385 20.412H53.0425C55.2881 20.412 57.1151 22.239 57.1151 24.4846V25.526C53.0397 25.3061 50.5804 23.7202 50.5565 23.7046C50.3979 23.5989 50.2169 23.5471 50.0367 23.5471C49.7947 23.5471 49.5547 23.6406 49.3735 23.8217C48.4765 24.7187 47.5976 25.1505 46.9657 25.3584ZM52.0405 37.187L49.8741 35.0206C49.9374 34.7789 49.972 34.5269 49.972 34.2683V34.0686C50.6165 34.3085 51.3134 34.4403 52.0405 34.4403C52.7676 34.4403 53.4645 34.3085 54.109 34.0686V34.2683C54.109 34.5269 54.1435 34.7789 54.2069 35.0206L52.0405 37.187ZM52.0405 32.5654C49.7949 32.5654 47.9679 30.7385 47.9679 28.4928V26.9814C48.6245 26.719 49.3895 26.3019 50.168 25.6386C51.1525 26.1509 53.2122 27.0363 56.1131 27.3288V28.4928C56.1131 30.7384 54.2861 32.5654 52.0405 32.5654Z" fill="#F7B500"/>
</g>
<defs>
<clipPath id="clip0">
<rect width="64" height="64" fill="white"/>
</clipPath>
</defs>
</svg>
