<svg width="64" height="64" viewBox="0 0 64 64" fill="none" xmlns="http://www.w3.org/2000/svg">
<path d="M8.00327 17.4031C6.27875 17.4031 4.87537 18.8065 4.87537 20.531C4.87537 22.2555 6.27875 23.6589 8.00327 23.6589C9.72779 23.6589 11.1312 22.2555 11.1312 20.531C11.1312 18.8065 9.72779 17.4031 8.00327 17.4031ZM8.00327 21.5736C7.42878 21.5736 6.96063 21.1055 6.96063 20.531C6.96063 19.9565 7.42878 19.4883 8.00327 19.4883C8.57776 19.4883 9.0459 19.9565 9.0459 20.531C9.0459 21.1055 8.57776 21.5736 8.00327 21.5736Z" fill="#F7B500"/>
<path d="M64 26.4813L62.5257 25.0071L47.6056 39.9272C47.5493 39.8636 47.5045 39.7916 47.444 39.7301L38.6713 30.9574L40.0194 29.6093L38.5451 28.135L35.4496 31.2305C33.7907 32.8883 31.2227 33.1177 29.3116 31.9176L36.8884 24.4003C36.8894 24.3992 36.8894 24.3982 36.8905 24.3971L56.7005 4.58708L55.2262 3.11279L36.1544 22.1847L34.8063 20.8365C34.6113 20.6405 34.3454 20.531 34.0691 20.531H30.3302L28.5504 18.7513L13.9536 4.15438L12.4793 5.62867L22.1685 15.3179L8.8332 28.6532L1.40964 21.8479L0 23.3858L12.1738 34.544V37.2132C12.1738 37.4895 12.2833 37.7553 12.4793 37.9503L16.9887 42.4597C16.5768 43.0154 16.3443 43.6806 16.3443 44.3855C16.3443 46.1413 17.7435 47.5665 19.4837 47.6281C19.5442 49.3296 20.91 50.6955 22.6116 50.756C22.6721 52.4575 24.0379 53.8234 25.7395 53.8839C25.801 55.624 27.2273 57.0232 28.9821 57.0232C29.4252 57.0232 29.8548 56.9325 30.251 56.7647L30.3302 56.8439C31.1174 57.6321 32.1653 58.0659 33.2798 58.0659C34.3944 58.0659 35.4412 57.6321 36.2284 56.8439L47.444 45.6283C48.2323 44.84 48.666 43.7932 48.666 42.6797C48.666 42.4128 48.6378 42.1501 48.5888 41.8925L64 26.4813ZM10.3721 30.0638L23.6428 16.7922L26.339 19.4884L13.1851 32.6423L10.3721 30.0638ZM20.4252 45.2123C20.2042 45.4323 19.9112 45.5543 19.5984 45.5543C18.954 45.5543 18.4296 45.0298 18.4296 44.3855C18.4296 44.0727 18.5516 43.7797 18.7716 43.5587L23.7324 38.5978C23.9535 38.3778 24.2465 38.2558 24.5592 38.2558C25.2036 38.2558 25.728 38.7803 25.728 39.4246C25.728 39.7374 25.606 40.0304 25.3861 40.2514L20.4252 45.2123ZM23.5531 48.3402C23.3321 48.5602 23.0391 48.6822 22.7263 48.6822C22.0819 48.6822 21.5575 48.1577 21.5575 47.5134C21.5575 47.2006 21.6795 46.9076 21.8995 46.6866L26.8603 41.7257C27.0814 41.5057 27.3744 41.3837 27.6871 41.3837C28.3315 41.3837 28.8559 41.9082 28.8559 42.5525C28.8559 42.8653 28.7339 43.1583 28.514 43.3793L23.5531 48.3402ZM26.681 51.4681C26.46 51.6881 26.167 51.8101 25.8542 51.8101C25.2098 51.8101 24.6854 51.2856 24.6854 50.6413C24.6854 50.3285 24.8074 50.0355 25.0274 49.8145L29.9882 44.8536C30.2093 44.6336 30.5023 44.5116 30.815 44.5116C31.4594 44.5116 31.9838 45.0361 31.9838 45.6804C31.9838 45.9932 31.8619 46.2862 31.6419 46.5072L26.681 51.4681ZM29.8089 54.596C29.5879 54.816 29.2949 54.938 28.9821 54.938C28.3378 54.938 27.8133 54.4135 27.8133 53.7692C27.8133 53.4564 27.9353 53.1634 28.1553 52.9424L33.1161 47.9815C33.3372 47.7615 33.6302 47.6395 33.943 47.6395C34.5873 47.6395 35.1117 48.164 35.1117 48.8083C35.1117 49.1211 34.9898 49.4141 34.7698 49.6351L29.8089 54.596ZM45.9697 44.154L34.7541 55.3696C33.9961 56.1276 32.7033 56.1485 31.9046 55.4499L36.2451 51.1094C36.8582 50.4953 37.197 49.6779 37.197 48.8083C37.197 47.0525 35.7978 45.6272 34.0576 45.5657C33.9972 43.8641 32.6313 42.4983 30.9297 42.4378C30.8693 40.7362 29.5034 39.3704 27.8018 39.3099C27.7403 37.5698 26.314 36.1705 24.5592 36.1705C23.6897 36.1705 22.8723 36.5094 22.2582 37.1235L18.4296 40.9521L14.2591 36.7815V34.5169L27.8133 20.9627L29.1614 22.3108C29.3564 22.5068 29.6223 22.6163 29.8986 22.6163H33.6375L34.677 23.6558L27.0136 31.2597C26.8165 31.4558 26.705 31.7237 26.706 32.0021C26.7071 32.2805 26.8186 32.5474 27.0167 32.7424C29.7578 35.4428 34.2036 35.4261 36.9238 32.7038L37.197 32.4317L45.9697 41.2044C46.3638 41.5985 46.5807 42.1219 46.5807 42.6797C46.5807 43.2375 46.3638 43.7599 45.9697 44.154Z" fill="#F7B500"/>
<path d="M7.27025 45.4907L5.44043 46.4917C5.78346 47.1183 6.15463 47.7428 6.54354 48.3465L8.29725 47.2184C7.93441 46.6553 7.5893 46.0746 7.27025 45.4907Z" fill="#F7B500"/>
<path d="M22.1476 58.385L21.4167 60.3379C22.0851 60.5881 22.7743 60.8175 23.4666 61.0197L24.0525 59.0189C23.4092 58.8302 22.769 58.6175 22.1476 58.385Z" fill="#F7B500"/>
<path d="M15.1119 54.5366L13.8597 56.2048C14.4332 56.6354 15.0306 57.0504 15.6333 57.4383L16.7614 55.6846C16.2005 55.3228 15.6447 54.937 15.1119 54.5366Z" fill="#F7B500"/>
<path d="M18.4912 56.7136L17.4902 58.5424C18.1179 58.8854 18.7675 59.2118 19.4212 59.511L20.2897 57.6155C19.6808 57.3361 19.0761 57.0327 18.4912 56.7136Z" fill="#F7B500"/>
<path d="M12.0747 51.9028L10.5994 53.3761C11.1061 53.8838 11.6378 54.3791 12.179 54.8483L13.5458 53.2729C13.0412 52.836 12.547 52.3741 12.0747 51.9028Z" fill="#F7B500"/>
<path d="M9.44214 48.8667L7.77393 50.1179C8.20558 50.6934 8.66121 51.2585 9.12831 51.7975L10.7037 50.4306C10.27 49.9291 9.84564 49.4026 9.44214 48.8667Z" fill="#F7B500"/>
<path d="M3.90366 34.0134L1.82361 34.1615C1.87365 34.8757 1.95081 35.5972 2.05195 36.3072L4.11636 36.0132C4.02252 35.3511 3.95058 34.6786 3.90366 34.0134Z" fill="#F7B500"/>
<path d="M1.82355 29.8459C1.77246 30.5549 1.74744 31.2796 1.74744 32V32.0032L3.8327 32C3.8327 31.3286 3.85668 30.6529 3.9036 29.994L1.82355 29.8459Z" fill="#F7B500"/>
<path d="M4.47078 37.989L2.43347 38.4321C2.5857 39.1338 2.76503 39.8376 2.96626 40.5237L4.96707 39.9377C4.78044 39.2986 4.61362 38.6427 4.47078 37.989Z" fill="#F7B500"/>
<path d="M5.60099 41.8425L3.64709 42.5724C3.89733 43.2417 4.17467 43.9122 4.47286 44.5638L6.36941 43.6974C6.09207 43.0895 5.8335 42.466 5.60099 41.8425Z" fill="#F7B500"/>
<path d="M57.5982 43.6963C57.3188 44.3052 57.0154 44.9099 56.6953 45.4948L58.5251 46.4958C58.8682 45.8681 59.1945 45.2185 59.4937 44.5648L57.5982 43.6963Z" fill="#F7B500"/>
<path d="M55.6683 47.2234C55.3054 47.7864 54.9186 48.3411 54.5193 48.8739L56.1875 50.1261C56.6171 49.5547 57.032 48.9573 57.422 48.3526L55.6683 47.2234Z" fill="#F7B500"/>
<path d="M53.2556 50.438C52.8188 50.9426 52.3579 51.4379 51.8856 51.9091L53.3589 53.3845C53.8666 52.8777 54.3619 52.346 54.8311 51.8049L53.2556 50.438Z" fill="#F7B500"/>
<path d="M59.0027 39.9324C58.814 40.5736 58.6013 41.2148 58.3688 41.8383L60.3216 42.5682C60.5729 41.8977 60.8012 41.2075 61.0035 40.5183L59.0027 39.9324Z" fill="#F7B500"/>
<path d="M59.8524 36.0078C59.7575 36.6709 59.6376 37.3361 59.4968 37.9857L61.5352 38.4267C61.6864 37.7292 61.8146 37.015 61.9157 36.3018L59.8524 36.0078Z" fill="#F7B500"/>
<path d="M50.4135 53.2803C49.911 53.7161 49.3844 54.1404 48.8485 54.5429L50.0997 56.2111C50.6742 55.7805 51.2393 55.3249 51.7794 54.8567L50.4135 53.2803Z" fill="#F7B500"/>
<path d="M26.0001 59.5151L25.5591 61.5524C26.2566 61.7036 26.9708 61.8319 27.684 61.933L27.978 59.8696C27.3149 59.7748 26.6497 59.6548 26.0001 59.5151Z" fill="#F7B500"/>
<path d="M60.1349 32C60.1349 32.6704 60.112 33.3471 60.0651 34.0092L62.1451 34.1562C62.1952 33.4441 62.2202 32.7184 62.2202 32H60.1349Z" fill="#F7B500"/>
<path d="M35.9949 59.8677C35.3339 59.9615 34.6614 60.0335 33.9951 60.0804L34.1432 62.1604C34.8574 62.1104 35.5789 62.0332 36.2889 61.9321L35.9949 59.8677Z" fill="#F7B500"/>
<path d="M31.9838 60.1512C31.3134 60.1512 30.6388 60.1282 29.9767 60.0813L29.8297 62.1614C30.5408 62.2114 31.2665 62.2364 31.9848 62.2364L31.9838 60.1512Z" fill="#F7B500"/>
<path d="M47.2 55.6887C46.6411 56.0484 46.0604 56.3935 45.4734 56.7147L46.4743 58.5445C47.1041 58.1994 47.7276 57.8292 48.3281 57.4424L47.2 55.6887Z" fill="#F7B500"/>
<path d="M43.679 57.6145C43.0711 57.8918 42.4476 58.1515 41.8252 58.3829L42.554 60.3368C43.2234 60.0866 43.8938 59.8092 44.5454 59.5111L43.679 57.6145Z" fill="#F7B500"/>
<path d="M39.9194 59.0178C39.2803 59.2045 38.6255 59.3713 37.9707 59.5141L38.4138 61.5514C39.1155 61.3992 39.8193 61.2199 40.5054 61.0186L39.9194 59.0178Z" fill="#F7B500"/>
<path d="M44.1462 4.40771L43.2277 6.28029C43.8063 6.56388 44.4017 6.88397 44.997 7.23117L46.048 5.4295C45.4088 5.05728 44.7687 4.71321 44.1462 4.40771Z" fill="#F7B500"/>
<path d="M31.9838 1.76367L31.548 1.7668L31.5782 3.85207L31.9838 3.84894C32.5343 3.84894 33.0723 3.86145 33.5978 3.88647L33.6958 1.80329C33.138 1.77723 32.5687 1.76367 31.9838 1.76367Z" fill="#F7B500"/>
<path d="M40.0997 2.83032L39.5148 4.83218C40.1456 5.01673 40.7795 5.23255 41.3988 5.47444L42.1589 3.53306C41.4822 3.26823 40.7899 3.03259 40.0997 2.83032Z" fill="#F7B500"/>
<path d="M35.8447 1.97729L35.6028 4.04797C36.2763 4.12721 36.9415 4.23147 37.5796 4.35867L37.9862 2.31302C37.295 2.1754 36.5745 2.06279 35.8447 1.97729Z" fill="#F7B500"/>
<path d="M21.0059 3.81763C20.3376 4.07829 19.6713 4.36605 19.0249 4.67363L19.9184 6.55767C20.5211 6.27199 21.1425 6.00299 21.7649 5.76005L21.0059 3.81763Z" fill="#F7B500"/>
<path d="M25.1295 2.54468C24.4299 2.70733 23.7282 2.89605 23.0453 3.1077L23.6615 5.10017C24.2964 4.90312 24.9491 4.72691 25.6008 4.57573L25.1295 2.54468Z" fill="#F7B500"/>
<path d="M29.3929 1.87305C28.6766 1.93456 27.9551 2.0211 27.2493 2.13266L27.5746 4.19291C28.2304 4.08865 28.9018 4.00732 29.5691 3.95102L29.3929 1.87305Z" fill="#F7B500"/>
</svg>
